<svg width="21" height="27" viewBox="0 0 21 27" fill="none" xmlns="http://www.w3.org/2000/svg">
<path d="M12.8588 18.3082L7.75924 16.2978M12.8588 18.3082C15.1365 16.9529 16.7569 15.3812 17.8821 13.7376M12.8588 18.3082C15.3782 18.976 16.5989 20.9221 16.8943 21.8117C18.9907 18.5692 18.4264 15.0779 17.8821 13.7376M12.8588 18.3082C12.5432 18.8805 11.7387 19.128 11.0619 18.8612L8.41326 17.817C7.73645 17.5502 7.44363 16.87 7.75924 16.2978M7.75924 16.2978C7.55759 14.8025 7.72881 12.5281 8.76536 10.1433M7.75924 16.2978C5.28394 15.0615 2.98774 15.5831 2.14905 15.9984C4.82058 11.7131 7.67306 10.3095 8.76536 10.1433M8.76536 10.1433C9.70776 7.97519 11.3654 5.71581 14.1085 3.86774M17.8821 13.7376C19.5932 11.2382 20.159 8.57266 20.1489 6.24913M14.1085 3.86774C15.5165 2.91916 17.2104 2.07894 19.2403 1.41504C19.7247 2.58294 20.1405 4.29508 20.1489 6.24913M14.1085 3.86774C14.9864 4.6343 17.4235 6.18376 20.1489 6.24913M9.12014 19.764L5.4518 26.415M6.9459 18.9068L3.94118 24.3546M11.1758 20.5744L8.17106 26.0223M16.0513 7.19712C17.2323 7.70847 17.7095 8.97857 17.0378 9.94605C16.4275 10.825 15.2078 11.1363 14.0973 10.7399C12.9399 10.3267 12.3865 9.27913 12.8079 8.27844C13.2685 7.1846 14.8289 6.66788 16.0513 7.19712Z" stroke="white"/>
</svg>
