<svg width="19" height="27" viewBox="0 0 19 27" fill="none" xmlns="http://www.w3.org/2000/svg">
<path d="M7.5844 6.59294C6.25242 5.50313 3.98805 2.96025 5.58643 1.50718C6.13134 1.32555 7.5481 1.28922 8.85587 2.59699C9.7035 2.71807 11.5077 2.8876 11.9437 2.59699C12.4886 2.23372 14.6682 1.50718 14.8498 2.59699C14.9951 3.46883 12.9729 5.62423 11.9437 6.59294M6.67626 6.95621C6.55515 7.25894 6.56723 7.90071 7.5844 8.04602C8.60158 8.19133 10.9144 8.10656 11.9437 8.04602C12.3675 7.80384 13.1424 7.24683 12.8518 6.95621M7.5844 9.13582C5.22317 10.71 0.573349 15.0571 0.863964 19.8522C1.22723 25.8462 6.85783 26.5727 10.1272 26.3911C13.3967 26.2094 17.3926 26.2094 18.4824 19.8522C18.4824 15.7641 16.8073 12.6232 11.9437 9.13582M11.9437 16.4012C11.8225 15.8563 11.2171 14.7302 9.76398 14.5849M9.76398 14.5849C7.94764 14.4032 6.8579 16.4012 7.5844 17.1277C8.3109 17.8543 12.4886 18.0359 11.9437 19.8522C11.3987 21.6686 10.6721 21.487 9.76398 21.6686M9.76398 14.5849V13.1318M9.76398 21.6686C8.85587 21.8502 7.5844 20.7604 7.5844 19.3073M9.76398 21.6686V23.1217" stroke="white"/>
</svg>
