<svg width="19" height="27" viewBox="0 0 19 27" fill="none" xmlns="http://www.w3.org/2000/svg">
<path d="M6.19038 19.8077C6.07045 17.8029 5.68623 16.4473 4.969 15.7411C2.18847 13.0034 1.4823 12.1917 1.4823 9.56893C1.4823 3.51647 7.29991 1.09547 10.1825 1.44852C12.6982 1.58302 17.8135 3.3853 18.149 9.5185C18.149 12.6961 17.4152 13.0289 14.8995 15.7727C14.2549 16.4757 13.9077 17.8207 13.7967 19.8077M6.19038 19.8077C6.25165 20.832 6.24393 22.0258 6.17639 23.389C6.15338 23.8537 6.53594 24.2462 7.01933 24.2462H7.2475M6.19038 19.8077H13.7967M13.7967 19.8077C13.7387 20.845 13.7452 22.0572 13.8074 23.4444C13.8281 23.9072 13.4462 24.2967 12.9648 24.2967H12.8031M7.2475 24.2462H10.1825L12.8031 24.2967M7.2475 24.2462V24.2462C7.2475 25.444 8.2185 26.415 9.41629 26.415H10.1825H10.6847C11.8546 26.415 12.8031 25.4666 12.8031 24.2967V24.2967" stroke="white"/>
<path d="M11.1783 19.8079V11.2335C11.0735 10.3256 12.4241 9.53389 13.0651 10.5779C13.7464 11.6875 12.6982 12.4945 12.3313 12.4945H7.40473C6.98544 12.4945 6.13639 11.9498 6.51375 10.5779C6.88063 9.87172 8.45296 9.902 8.45296 11.2335V19.8079" stroke="white"/>
</svg>
