<svg width="28" height="26" viewBox="0 0 28 26" fill="none" xmlns="http://www.w3.org/2000/svg">
<rect x="5.10789" y="2.73789" width="4.02143" height="20.3538" stroke="white" stroke-width="0.8"/>
<rect x="20.5366" y="17.1612" width="4.02143" height="5.93077" stroke="white" stroke-width="0.8"/>
<path d="M16.8437 16.08V23.0921H12.8223V13.4633C13.1377 13.8736 13.565 14.3153 14.1294 14.6906C14.8769 15.1875 15.6215 15.5584 16.1776 15.8049C16.451 15.926 16.6803 16.0177 16.8437 16.08Z" stroke="white" stroke-width="0.8"/>
<mask id="path-4-inside-1_394_1930" fill="white">
<path d="M23.1221 13.0073C22.4054 13.7221 21.5254 14.2528 20.5578 14.554C19.5901 14.8552 18.5637 14.9178 17.5664 14.7366C16.5691 14.5554 15.6308 14.1357 14.8319 13.5135C14.0331 12.8913 13.3974 12.0852 12.9796 11.1643C12.5617 10.2434 12.3741 9.23513 12.4328 8.22602C12.4914 7.21692 12.7947 6.23706 13.3165 5.37049C13.8384 4.50391 14.5632 3.77646 15.4289 3.25053C16.2945 2.7246 17.2752 2.41588 18.2868 2.35084L18.6901 8.58789L23.1221 13.0073Z"/>
</mask>
<path d="M23.1221 13.0073C22.4054 13.7221 21.5254 14.2528 20.5578 14.554C19.5901 14.8552 18.5637 14.9178 17.5664 14.7366C16.5691 14.5554 15.6308 14.1357 14.8319 13.5135C14.0331 12.8913 13.3974 12.0852 12.9796 11.1643C12.5617 10.2434 12.3741 9.23513 12.4328 8.22602C12.4914 7.21692 12.7947 6.23706 13.3165 5.37049C13.8384 4.50391 14.5632 3.77646 15.4289 3.25053C16.2945 2.7246 17.2752 2.41588 18.2868 2.35084L18.6901 8.58789L23.1221 13.0073Z" stroke="white" stroke-width="1.6" mask="url(#path-4-inside-1_394_1930)"/>
<mask id="path-5-inside-2_394_1930" fill="white">
<path d="M24.3474 4.44491C25.412 5.64395 25.9744 7.20473 25.9185 8.8052C25.8627 10.4057 25.1929 11.9237 24.0473 13.0461L19.6545 8.58789L24.3474 4.44491Z"/>
</mask>
<path d="M24.3474 4.44491C25.412 5.64395 25.9744 7.20473 25.9185 8.8052C25.8627 10.4057 25.1929 11.9237 24.0473 13.0461L19.6545 8.58789L24.3474 4.44491Z" stroke="white" stroke-width="1.6" mask="url(#path-5-inside-2_394_1930)"/>
<mask id="path-6-inside-3_394_1930" fill="white">
<path d="M19.7462 1.16453C21.4065 1.24706 22.9659 1.98388 24.0814 3.21289L19.4341 7.40677L19.7462 1.16453Z"/>
</mask>
<path d="M19.7462 1.16453C21.4065 1.24706 22.9659 1.98388 24.0814 3.21289L19.4341 7.40677L19.7462 1.16453Z" stroke="white" stroke-width="1.6" mask="url(#path-6-inside-3_394_1930)"/>
<line x1="0.850952" y1="25.015" x2="27.851" y2="25.015" stroke="white" stroke-width="0.8"/>
</svg>
