<svg width="69" height="70" viewBox="0 0 69 70" fill="none" xmlns="http://www.w3.org/2000/svg">
<g clip-path="url(#clip0_27_744)">
<path d="M54.6221 57.2323C61.9533 55.8307 67.1463 49.1868 66.7877 41.6669C66.615 37.9878 65.2338 34.713 62.7103 32.0446C60.851 30.0635 58.6994 28.7294 56.2557 28.0151C55.6447 27.8399 55.1267 27.6647 55.0869 27.6243C54.9674 27.503 55.7377 25.7376 56.5611 24.2282C57.6369 22.2741 58.8057 20.5491 60.5189 18.3524C61.8205 16.7083 62.0728 16.304 62.2189 15.6841C62.5244 14.296 61.8736 12.9348 60.6119 12.261C59.6025 11.7219 58.8721 11.7489 56.9596 12.4227C47.2244 15.8323 40.6103 22.9884 38.1666 32.7858C37.3564 36.0471 37.1705 37.6104 37.1572 41.1952C37.1572 43.6884 37.1971 44.4835 37.383 45.2651C38.7908 51.087 42.8017 55.4669 48.1408 56.9762C49.1768 57.2727 49.7213 57.3266 51.501 57.3805C52.9752 57.4075 53.9314 57.3671 54.6221 57.2323Z" fill="white"/>
<path d="M21.0072 57.1518C25.8814 56.1141 29.972 52.6641 31.7783 48.0821C32.6283 45.9259 32.7611 45.2116 32.7611 42.4085C32.7744 40.0096 32.7478 39.7671 32.4025 38.5137C30.9814 33.3387 26.9306 29.2014 22.0431 27.9212C21.2595 27.719 21.1002 27.6382 21.1267 27.4225C21.1533 27.2878 21.5517 26.3848 22.0298 25.4145C23.0923 23.2313 24.8587 20.4956 26.5455 18.4067C28.0064 16.6009 28.3119 16.0079 28.3252 15.0106C28.3252 14.1346 28.0994 13.5552 27.4619 12.8544C26.3861 11.628 25.1642 11.601 22.2822 12.6927C10.1962 17.2612 3.18375 27.7864 3.17047 41.3977C3.17047 44.2009 3.27672 44.9555 3.95406 47.004C5.69391 52.2598 10.1033 56.2219 15.3494 57.2327C16.8502 57.5157 19.44 57.4887 21.0072 57.1518Z" fill="white"/>
</g>
<defs>
<clipPath id="clip0_27_744">
<rect width="68" height="69" fill="white" transform="matrix(-1 0 0 -1 68.9658 69.1587)"/>
</clipPath>
</defs>
</svg>
