<svg width="19" height="17" viewBox="0 0 19 17" fill="none" xmlns="http://www.w3.org/2000/svg">
<path d="M9.34213 0.437625C9.46161 0.0685677 9.98374 0.068567 10.1032 0.437624L11.9052 6.0033C11.9586 6.16831 12.1123 6.28009 12.2857 6.28009L18.12 6.28009C18.5071 6.28009 18.6684 6.77521 18.3556 7.0033L13.6332 10.4467C13.4935 10.5485 13.435 10.7286 13.4883 10.8931L15.2915 16.4628C15.4109 16.8315 14.9885 17.1375 14.6753 16.9092L9.95834 13.4698C9.81792 13.3674 9.62744 13.3674 9.48701 13.4698L4.77006 16.9092C4.45685 17.1375 4.03445 16.8315 4.15384 16.4628L5.95708 10.8931C6.01033 10.7286 5.95188 10.5485 5.81219 10.4467L1.08974 7.0033C0.776919 6.77521 0.938258 6.28009 1.3254 6.28009L7.15963 6.28009C7.33308 6.28009 7.48676 6.16831 7.54019 6.0033L9.34213 0.437625Z" fill="#FFB31F"/>
</svg>
